<svg xmlns="http://www.w3.org/2000/svg" viewBox="79.8 123.825 364.616 253.78" role="img" aria-labelledby="logo-title">
  <title id="logo-title">Délia Rossignol</title>
  <g>
    <svg viewBox="1.68 -37.44 113.76 37.44" preserveAspectRatio="none" y="123.825" x="79.8" height="120" width="364.616">
      <path d="M12.6-28.32q7.08 0 10.6 3.54 3.52 3.54 3.52 10.3 0 4.36-1.72 7.64-1.72 3.28-4.98 5.06Q16.76 0 12.24 0L9.92-.04Q7.68-.12 6.64-.12q-3.28 0-4.96.12v-.8q1.44-.08 2.1-.32.66-.24.9-.92t.24-2.2v-19.84q0-1.52-.24-2.2-.24-.68-.9-.92t-2.1-.32v-.8q1.4.12 3.88.12l3.4-.04q2.72-.08 3.64-.08Zm-1 .72q-1.24 0-1.86.28-.62.28-.86 1t-.24 2.16v20q0 1.44.24 2.16.24.72.86 1t1.9.28q4.24 0 6.68-1.54 2.44-1.54 3.42-4.5t.98-7.56q0-4.6-1.08-7.5-1.08-2.9-3.5-4.34T11.6-27.6ZM50.72-5.12q0 2.28.28 5.12-2.72-.12-9.16-.12-7.68 0-11.6.12v-.8q1.44-.08 2.1-.32.66-.24.9-.92t.24-2.2v-19.84q0-1.52-.24-2.2-.24-.68-.9-.92t-2.1-.32v-.8q3.92.12 11.6.12 5.88 0 8.36-.12-.28 2.64-.28 4.72 0 1.56.12 2.48h-.92q-.28-2.6-.72-3.86-.44-1.26-1.48-1.84-1.04-.58-3.16-.58h-3.32q-1.44 0-2.1.22-.66.22-.9.9t-.24 2.2v9.44h2.64q1.4 0 2.16-.66.76-.66 1.02-1.56t.42-2.26l.12-.8h.92q-.12 1.68-.12 3.76v1.92q0 2.04.24 5.68h-.92q-.04-.28-.24-1.94-.2-1.66-1.1-2.5-.9-.84-2.5-.84H37.2v9.6q0 1.52.24 2.2.24.68.9.9.66.22 2.1.22h2.92q2.48 0 3.78-.66 1.3-.66 1.9-2.12.6-1.46.88-4.3h.92q-.12 1.08-.12 2.88Zm-5.64-31.92q.64-.4 1.2-.4.76 0 1.24.68.24.36.24.76 0 .88-1.08 1.56-.84.52-2.88 1.28-3 1.2-5.16 2.28l-.28-.52q1.64-1.24 2.82-2.3 1.18-1.06 1.46-1.3 1.48-1.4 2.44-2.04Zm19.72 8.72v.8q-1.44.08-2.1.32-.66.24-.9.92t-.24 2.2v19.84q0 1.52.24 2.2.24.68.9.9.66.22 2.1.22h2.92q2.48 0 3.78-.7 1.3-.7 1.9-2.26.6-1.56.88-4.52h.92q-.12 1.24-.12 3.28 0 2.28.28 5.12-2.72-.12-9.16-.12-7.68 0-11.6.12v-.8q1.44-.08 2.1-.32.66-.24.9-.92t.24-2.2v-19.84q0-1.52-.24-2.2-.24-.68-.9-.92t-2.1-.32v-.8q1.68.12 5.12.12 3.2 0 5.08-.12Zm23.52 0v.8q-1.44.08-2.1.32-.66.24-.9.92t-.24 2.2v19.84q0 1.52.24 2.2.24.68.9.92t2.1.32V0q-1.84-.12-5.08-.12-3.44 0-5.12.12v-.8q1.44-.08 2.1-.32.66-.24.9-.92t.24-2.2v-19.84q0-1.52-.24-2.2-.24-.68-.9-.92t-2.1-.32v-.8q1.68.12 5.12.12 3.2 0 5.08-.12Zm24.36 24.96q.96 2.48 2.76 2.56V0q-1.6-.12-4.28-.12-3.44 0-5.12.12v-.8q1.52-.08 2.18-.38.66-.3.66-1.1 0-.68-.48-1.88l-2.44-6.56h-9.68l-1.64 4.24q-.8 2.16-.8 3.28 0 1.24.86 1.8t2.62.6V0q-2.28-.12-4.6-.12-1.8 0-3 .12v-.8q2-.48 3.16-3.48l9.4-24.24h.64l9.76 25.16ZM96.6-11.52h9.04l-4.48-11.96-4.56 11.96Z" fill="#f0d5c0"/>
    </svg>
    <g transform="rotate(-16 112.561 271.649)">
      <svg viewBox="0 -29.2 121.68 45.92" preserveAspectRatio="none" y="271.649" x="112.561" height="105.956" width="280.765">
        <path d="M19.12-17.08q0-.36-.64-.4-2 4.04-5.76 8.94-3.76 4.9-7.1 8.14T1.14 2.84Q0 2.84 0 1.88 0-.36 5.54-7.14q5.54-6.78 12.42-12.62.68-1.96.68-3.5t-.86-2.64q-.86-1.1-2.3-1.62-2.56-.92-5.4-.92-6.56 0-6.64 2.2 0 .84 1 1.46t2.46 1.1q1.46.48 2.92 1.06 1.46.58 2.48 1.66t1.02 2.32q0 1.24-.38 1.24t-.38-.48q0-1.48-1.68-2.56T7.2-22.1q-2-.58-3.68-1.54-1.68-.96-1.68-2.06t.84-1.8q.84-.7 2.12-1.06 2.56-.64 4.64-.64 2.08 0 3.78.28 1.7.28 3.34.94 1.64.66 2.64 1.94 1 1.28 1 3.04 0 .64-.2 1.56Q29.52-29 35.24-29q2.12 0 2.12 1.6 0 1.88-2.54 5.06-2.54 3.18-5.94 5.66-3.4 2.48-5.6 2.48-1.36 0-2.4-.56-.04-.04-.16-.04t-.12 1.22q0 1.22.06 2.44T21-7.86q.28 2.06.8 3.52t1.56 2.58Q24.4-.64 25.74-.64q1.34 0 4.18-1.28.4-.2.7-.2.3 0 .3.16 0 .36-.6.64-3.44 1.8-5.36 1.8-1.92 0-3.18-1.38-1.26-1.38-1.74-3.72-.48-2.34-.64-4.52-.16-2.18-.16-4.66t-.12-3.28Zm.44-2.88q-.32.92-.72 1.76h1.28q.2 0 .24.36.04.36.08.88t.28.86q.24.34.94.74.7.4 1.62.4 1.84 0 4.74-2.5 2.9-2.5 5.02-5.48 2.12-2.98 2.12-4.34 0-.72-.72-.72-5 0-14.88 8.04ZM1.72 1.64q.92 0 3.92-3.08t6.48-7.88q3.48-4.8 5.2-8.76Q11-12.64 6.26-6.84t-4.74 8.2q0 .28.2.28Zm37.32-5.08q2.24 0 5.36-2.52l.68.2q-3.92 3.28-6.76 3.28-.32 0-.48-.04-1.08 1.32-2.36 2.14-1.28.82-2.24.82-1.52 0-1.52-1.7t2.84-4.54q-.48-1.16-.48-2.44t.92-2.08q.92-.8 2.14-.8 1.22 0 2.06.8.84.8.84 2.28 0 2.28-1.48 4.56.16.04.48.04Zm-1.28-.4Q39-5.92 39-7.38t-.72-2.16q-.72-.7-1.4-.7-1.4 0-1.4 1.44t.64 2.86q.64 1.42 1.64 2.1Zm-4.4 2.36q0 .8 1.04.8t2.64-2.12q-1.08-.56-1.92-1.96-1.76 1.92-1.76 3.28ZM52-5.76l1.12-.88q.32-.2.54-.2.22 0 .22.28v.08q-3.08 2.6-6.5 4.88T43.04.68q-.92 0-1.54-.34t-.62-.78q0-.44.24-.74t.44-.3q.2 0 .66.62t.9.62q.92 0 1.44-1.96.52-1.96.52-2.7 0-.74-.1-.74t-.18.08l-1.16.92-.16-.6q2.52-2 2.92-2.68.24-.64.68-.64.28 0 .28.2t-.28.86q-.28.66-.74 2.98-.46 2.32-.46 2.68 0 .36.2.36Q48.88-3.2 52-5.76Zm7.96 0 1.12-.88q.32-.2.54-.2.22 0 .22.28v.08q-3.08 2.6-6.5 4.88T51 .68q-.92 0-1.54-.34t-.62-.78q0-.44.24-.74t.44-.3q.2 0 .66.62t.9.62q.92 0 1.44-1.96.52-1.96.52-2.7 0-.74-.1-.74t-.18.08l-1.16.92-.16-.6q2.52-2 2.92-2.68.24-.64.68-.64.28 0 .28.2t-.28.86q-.28.66-.74 2.98-.46 2.32-.46 2.68 0 .36.2.36 2.8-1.72 5.92-4.28Zm5.46-6.32q.38 0 .6.24.22.24.22.68 0 .44-.6 1.12-.6.68-1.04.68-.44 0-.64-.26t-.2-.6q0-.34.64-1.1t1.02-.76Zm2.42 6.12.88-.72q.32-.2.5-.2t.18.24v.12q.16 0-2.14 1.76-2.3 1.76-4.92 3.52T59.04.52q-1.16 0-1.16-.96 0-1.16 2-4.38 2-3.22 2.92-3.22.68 0 .68.52t-1.84 2.84Q59.8-2.36 59.8-1.36q0 .56.42.56t2.1-1.12q3-2 5.52-4.04Zm11.76.12.92-.8q.28-.2.52-.2t.24.28v.08q-3.88 3.2-6.08 4.64l-8 5.2-2.48 3.48q-5.76 7.88-5.76 8.48-.64 1.4-1.24 1.4-.76 0-.76-1t.98-2.68q.98-1.68 1.94-2.72l3.8-4q.48-.76 1.96-2.8T67.6.8l1.72-2.56.08-.16q0-.08-.08-.08Q66.96-.04 65.4-.04t-1.56-.9q0-.9 1.2-2.38t2.9-2.88q1.7-1.4 3.76-2.42 2.06-1.02 3.64-1.02t1.58 1.12q0 .8-1.5 1.92-1.5 1.12-1.84 1.12-.34 0-.34-.16 0-.24.32-.44 1.36-.96 1.36-1.82 0-.86-.72-.86-1.76 0-4.9 2.98-3.14 2.98-3.14 4.22 0 .36.58.36t1.98-.94q1.4-.94 2.12-1.82l1.08-1.36q.2-.28.52-.28t.56.2q.24.2.24.4L68.4 1.72 74.32-2q2.64-1.6 5.28-3.84Zm17.2-.8v.12Q88.36.52 86.36.52q-1.16 0-1.16-.96t.86-2.28q.86-1.32 1.72-2.34.86-1.02.86-1.22 0-.2-.12-.2Q84.8-4 84.1-3.44q-.7.56-2.28 1.84Q80.24-.32 79.76 0q-.48.32-1.04.32t-.56-.48q0-.56 2.24-3.52Q82.56-6.64 82.56-7q0-.08-.14-.08t-3.46 2.44l-.16-.6q2.84-2.28 3.84-2.92 1-.64 1.62-.64.62 0 .62.6 0 .4-2.26 3.26t-2.26 3.08q0 .22.14.22t4.56-3.22q4.42-3.22 5.38-3.22.28 0 .54.22t.26.42q0 .48-2.12 3.18T87-1.2q0 .36.5.36t2.14-1.08q3-1.96 5.52-4.04l.88-.72q.28-.2.52-.2t.24.24Zm2.28 3.2q2.24 0 5.36-2.52l.68.2q-3.92 3.28-6.76 3.28-.32 0-.48-.04Q96.8-1.2 95.52-.38q-1.28.82-2.24.82-1.52 0-1.52-1.7T94.6-5.8q-.48-1.16-.48-2.44t.92-2.08q.92-.8 2.14-.8 1.22 0 2.06.8.84.8.84 2.28 0 2.28-1.48 4.56.16.04.48.04Zm-1.28-.4q1.24-2.08 1.24-3.54t-.72-2.16q-.72-.7-1.4-.7-1.4 0-1.4 1.44t.64 2.86q.64 1.42 1.64 2.1Zm-4.4 2.36q0 .8 1.04.8t2.64-2.12Q96-3.36 95.16-4.76 93.4-2.84 93.4-1.48Zm20.48-4.32 1-.84q.28-.2.52-.2t.24.28v.08q-4.16 3.44-6.32 4.8-2.8 2.12-4.72 2.12-1.68 0-1.68-2 0-2.68 3.46-7.94t7.78-9.46q4.32-4.2 6.52-4.2 1 0 1 .88 0 2.2-5.26 7.26T106.08-6.4q-1.48 2.84-1.48 4.32 0 1.48 1.04 1.48t2.72-1.2q2.84-1.68 5.52-4Zm5.8-16.08q-1.68 0-5.96 4.84t-7.08 9.68q4.6-3.28 9-8.02t4.4-6.14q0-.36-.36-.36Z" fill="#f0d5c0"/>
      </svg>
    </g>
  </g>
</svg>
